<?xml version="1.0" encoding="UTF-8"?>
<!DOCTYPE svg PUBLIC "-//W3C//DTD SVG 1.1//EN" "http://www.w3.org/Graphics/SVG/1.1/DTD/svg11.dtd">
<!-- Creator: CorelDRAW X7 -->
<svg xmlns="http://www.w3.org/2000/svg" xml:space="preserve" width="3in" height="3in" version="1.1" style="shape-rendering:geometricPrecision; text-rendering:geometricPrecision; image-rendering:optimizeQuality; fill-rule:evenodd; clip-rule:evenodd"
viewBox="0 0 3000 3000"
 xmlns:xlink="http://www.w3.org/1999/xlink">
 <defs>
  <style type="text/css">
   <![CDATA[
    .str1 {stroke:#373435;stroke-width:27.7795}
    .str0 {stroke:#373435;stroke-width:6.94488}
    .fil2 {fill:none}
    .fil0 {fill:#6B809B}
    .fil1 {fill:#00AFEF}
   ]]>
  </style>
 </defs>
 <g id="Layer_x0020_1">
  <metadata id="CorelCorpID_0Corel-Layer"/>
  <path class="fil0 str0" d="M2581 2455l-1947 -1947c-21,-54 -70,-83 -146,-86 -7,33 0,64 21,92 12,-14 15,-32 9,-53 41,24 61,57 61,99l1947 1947c28,-7 46,-25 55,-52z"/>
  <g id="_2151714074576">
   <circle class="fil1 str1" cx="1619" cy="1487" r="1000"/>
   <path class="fil2 str1" d="M804 2074c0,-772 626,-1397 1397,-1397"/>
   <path class="fil2 str1" d="M914 2199c0,-781 634,-1415 1415,-1415"/>
   <path class="fil2 str1" d="M1044 2302c0,-770 624,-1394 1394,-1394"/>
   <path class="fil2 str1" d="M1175 2378c0,-742 601,-1343 1343,-1343"/>
   <path class="fil2 str1" d="M2541 1873c-108,-297 -293,-550 -528,-740m-494 -279c-181,-65 -375,-100 -576,-100"/>
   <path class="fil2 str1" d="M2452 2038c-122,-336 -340,-617 -617,-817m-494 -248c-167,-53 -344,-81 -525,-81"/>
   <path class="fil2 str1" d="M2339 2179c-129,-354 -366,-646 -666,-845m-484 -223c-150,-42 -307,-64 -468,-64"/>
   <path class="fil2 str1" d="M2198 2290c-127,-350 -365,-636 -665,-826m-469 -202c-131,-33 -266,-50 -405,-50"/>
   <path class="fil2 str1" d="M1844 2464c-253,-177 -430,-423 -524,-694m16 -970c40,-105 94,-207 161,-303"/>
   <path class="fil2 str1" d="M1993 2413c-294,-206 -484,-506 -557,-831m37 -744c41,-123 101,-243 180,-356"/>
   <path class="fil2 str1" d="M2124 2342c-296,-208 -481,-515 -541,-845m66 -707c37,-99 88,-195 152,-285"/>
   <path class="fil2 str1" d="M2177 2234c-201,-158 -341,-366 -414,-595m54 -909c30,-64 66,-127 108,-188"/>
   <path class="fil2 str1" d="M2506 1025c-63,135 -145,256 -241,360m-436 318c-12,6 -25,11 -37,17m-449 111c-18,2 -36,3 -54,3m-453 -57c-66,-19 -131,-44 -195,-73"/>
   <path class="fil2 str1" d="M2436 902c-1,2 -2,4 -2,6m-74 136c-54,87 -116,166 -186,237m-1305 370c-84,-21 -167,-50 -248,-88"/>
   <path class="fil2 str1" d="M2332 786c0,1 0,1 0,1m-197 303c-24,28 -50,55 -77,80m-512 303c-9,3 -19,6 -29,9m-594 27c-103,-20 -205,-52 -305,-99"/>
   <path class="fil2 str1" d="M2572 1188c-56,121 -128,231 -211,327m-411 327c-26,14 -53,27 -80,39m-447 118c-65,6 -130,8 -196,5m-415 -82c-40,-14 -81,-31 -121,-49"/>
   <path class="fil2 str1" d="M1780 2477c0,-20 0,-40 2,-59m160 -428c19,-26 40,-51 63,-74m451 -239c44,-7 89,-11 135,-11"/>
   <path class="fil2 str1" d="M1620 2487c0,-68 7,-134 19,-198m728 -764c79,-20 161,-31 245,-31"/>
   <path class="fil2 str1" d="M1460 2467c0,-116 17,-228 49,-333m267 -456c4,-5 9,-9 13,-14m470 -287c6,-2 12,-4 19,-6m219 -42c35,-3 70,-5 105,-5"/>
   <path class="fil2 str1" d="M1321 2446c0,-166 32,-324 90,-468m1159 -784c1,0 2,0 2,0"/>
   <path class="fil2 str1" d="M1303 2427c0,-151 -26,-296 -73,-431m-307 -488c-84,-85 -180,-158 -285,-217"/>
   <path class="fil2 str1" d="M993 1372c-79,-63 -166,-116 -259,-158"/>
   <path class="fil2 str1" d="M1465 545c-112,42 -231,70 -355,81"/>
   <path class="fil2 str1" d="M1395 675c-112,42 -231,70 -355,81"/>
  </g>
 </g>
</svg>
