<svg version="1" xmlns="http://www.w3.org/2000/svg" width="933.333" height="933.333" viewBox="0 0 700.000000 700.000000"><path d="M113.4 98.2c-1.7 2.7-.5 12 2.1 17.4 2.5 5.1 2.9 5.4 4.3 4 .9-.8 1.8-3.4 2.1-5.8l.6-4.2 3.6 3.2c4.1 3.6 6.7 8.3 7.7 14.2.6 3.6 3.9 7.2 32.1 35.4l31.3 31.4-7.5 9.8c-27.6 36.5-43 76.4-47.6 123.1-.9 8.5-.7 38.7.3 44.3.3 1.9.8 5.7 1.1 8.5.3 2.7.7 5.7.9 6.5.3.8.7 3.3 1.1 5.5.3 2.2 1 5.8 1.6 8 .6 2.2 1.3 5.1 1.5 6.5.3 1.4 2.7 9.2 5.5 17.5 14.1 41.7 40.7 79.7 75.4 107.6 9.1 7.3 32.1 22.9 33.8 22.9.5 0 2.1.8 3.5 1.8 1.5 1 8 4.2 14.4 7 46.4 20.5 95 25.7 145.3 15.7 26.3-5.2 56.2-17.7 80-33.2 10.6-7 21.8-15.2 22.3-16.5.2-.4.9-.8 1.5-.8.7 0 14.2 13 30.1 28.9 26.4 26.5 29.1 28.9 31.2 28.1 4.4-1.7 7-4 9.3-8.1l2.4-4.1-29.2-29.2-29.1-29.1 5.1-5.5c23.3-24.8 42.7-57.5 52.7-89 2.6-8.1 6.8-25 7.7-31 .4-2.5.9-5.2 1-6 1.6-8.8 2.4-20.2 2.5-36.5.1-14.6-.2-19-2.5-36-1.6-11.8-6.1-29.6-11-43.1-12.3-34-31-63.3-56-87.9-11.7-11.6-14.1-13.6-25.5-22.1-31-23-69.3-39.2-103.9-44-2.5-.3-5.7-.8-7.1-1-13.3-2.3-51-2.2-62.5.1-1.1.3-3.7.7-5.8 1-10.5 1.4-37.1 8.4-44.2 11.5-1.1.5-4.9 2.1-8.5 3.6-8.3 3.4-25.6 12-29.1 14.5-1.5 1-2.9 1.9-3.2 1.9-.6 0-19.9 13-20.7 13.9-.3.3-2.5 2.2-5 4.2-5.7 4.7-8.4 7-14.1 12.4l-4.6 4.3-31-31.1c-17-17.2-31.6-32.5-32.3-34-4-8.2-14.8-14.8-26.1-16.3-2.4-.3-4.9-.7-5.6-.9-.7-.2-1.5.1-1.9.7z"/></svg>